<svg width='512' height='512' viewBox="0 0 40 28" fill="none" xmlns="http://www.w3.org/2000/svg">
<path d="M10.0575 24.6768L0.511719 26.1623L8.99719 20.1511L10.0575 24.6768Z" fill="#8BC53F"/>
<path d="M8.42969 17.6769L11.7528 24.2524L33.8132 17.6769L31.7522 13.3391L18.7167 8.83771L8.42969 17.6769Z" fill="#8BC53F"/>
<path d="M8.42969 17.6768L8.99558 20.1511L10.0559 24.6768L11.7528 24.2524L8.42969 17.6768Z" fill="#009345"/>
<path d="M21.582 28L25.8248 27.9396L24.6952 25.3739L21.582 28Z" fill="#009345"/>
<path d="M25.8249 27.9396L25.9163 27.7451L26.4608 26.5971L24.6953 25.3739" fill="#8BC53F"/>
<path d="M26.4609 2.05063L33.8146 0L35.7953 1.344L26.4609 2.05063Z" fill="#009345"/>
<path d="M35.7949 1.34399L37.7733 4.87863L36.7845 5.30305H34.0898L35.7949 1.34399Z" fill="#8BC53F"/>
<path d="M37.7733 4.87866L38.41 6.92929L34.0898 5.30308L37.7733 4.87866Z" fill="#009345"/>
<path d="M0.511719 26.1623L1.07982 24.6769L3.20635 24.2524L0.511719 26.1623Z" fill="#009345"/>
<path d="M3.20526 24.2524L0 23.016L1.07874 24.6768L3.20526 24.2524Z" fill="#8BC53F"/>
<path d="M18.7154 8.83766L31.7509 13.339L31.9307 11.7452L17.3125 7.9903L18.7154 8.83766Z" fill="#009345"/>
<path d="M26.4613 2.05063L17.1992 7.91957L17.3156 7.99031L31.9339 11.7453L35.7956 1.34399L26.4613 2.05063Z" fill="#8BC53F"/>
<path d="M17.0391 22.6763L20.6525 24.6768L33.8133 17.6768L17.0391 22.6763Z" fill="#009345"/>
<path d="M33.8134 17.6768L20.6445 24.6488L21.5811 28L33.8134 17.6768Z" fill="#8BC53F"/>
</svg>
